<?xml version="1.0" encoding="utf-8"?>
<!-- Generator: Adobe Illustrator 20.1.0, SVG Export Plug-In . SVG Version: 6.00 Build 0)  -->
<svg version="1.1" id="Capa_1" xmlns="http://www.w3.org/2000/svg" xmlns:xlink="http://www.w3.org/1999/xlink" x="0px" y="0px"
	 viewBox="0 0 1156.8 249.6" style="enable-background:new 0 0 1156.8 249.6;" xml:space="preserve">
<style type="text/css">
	.st0{fill:#41AF68;}
	.st1{fill:#146938;}
	.st2{fill:#68388D;}
	.st3{fill:#3A2154;}
</style>
<path class="st0" d="M279.9,173.2v70.6h-67.2V3.9h67.2v136.7"/>
<g>
	<polygon class="st0" points="87.6,109 87.6,109.1 87.6,109.1 	"/>
	<polygon class="st0" points="87.5,109.1 0,167.9 0,241.8 87.6,183.1 87.5,183 	"/>
	<polygon class="st0" points="87.5,109 87.5,109.1 87.6,109.1 	"/>
	<polygon class="st0" points="87.6,183.1 87.6,183.1 87.6,183 	"/>
</g>
<g>
	<polygon class="st0" points="87.6,108 87.6,107.9 87.6,107.9 	"/>
</g>
<polygon class="st1" points="174.9,167.9 87.5,109.1 87.5,183 87.5,183.1 174.9,241.8 "/>
<g>
	<polygon class="st2" points="87.6,0 87.5,0.1 87.6,0.1 	"/>
	<polygon class="st2" points="87.5,0.1 0,58.9 0,132.7 87.5,74 87.5,74 	"/>
	<polygon class="st2" points="87.5,0 87.5,0.1 87.5,0.1 	"/>
	<polygon class="st2" points="87.5,74 87.6,74.1 87.6,74 	"/>
</g>
<polygon class="st3" points="174.9,58.9 87.5,0.1 87.5,74 87.5,74.1 174.9,132.7 "/>
<g>
	<polygon class="st0" points="279.9,156 280,156 280,156 	"/>
	<polygon class="st0" points="280,156.1 338.8,243.6 412.7,243.6 354,156 353.9,156.1 	"/>
	<polygon class="st0" points="279.9,156.1 280,156.1 280,156 	"/>
	<polygon class="st0" points="354,156 354,156 353.9,156 	"/>
</g>
<polygon class="st1" points="338.8,68.6 280,156.1 353.9,156.1 354,156.1 412.7,68.6 "/>
<g>
	<path class="st0" d="M396,158.8c0-52.4,30.5-90.1,77.4-90.1c26.4,0,44.9,12.7,52.8,30.1V73.5h67.5v170.3h-67.5v-25.4
		c-7.5,17.5-27.4,30.2-53.1,30.2C425.5,248.6,396,210.9,396,158.8z M529.3,158.8c0-20.6-12-36-32.2-36c-19.2,0-31.5,15.1-31.5,36
		c0,20.9,12.3,35.6,31.5,35.6C517.3,194.5,529.3,179.1,529.3,158.8z"/>
	<path class="st0" d="M1059.1,128.3h-67.5V73.5h165.2L1083.4,189h66.5v54.8H983.4L1059.1,128.3z"/>
	<path class="st0" d="M776.6,158.8c0-52.4,30.5-90.1,77.4-90.1c26.4,0,44.9,12.7,52.8,30.1V73.5h67.5v170.3h-67.5v-25.4
		c-7.5,17.5-27.4,30.2-53.1,30.2C806.1,248.6,776.6,210.9,776.6,158.8z M909.9,158.8c0-20.6-12-36-32.2-36
		c-19.2,0-31.5,15.1-31.5,36c0,20.9,12.3,35.6,31.5,35.6C897.9,194.5,909.9,179.1,909.9,158.8z"/>
	<path class="st0" d="M601,193.1h66.8c0,9.6,8.2,16.1,21.2,16.1c8.9,0,15.4-4.5,15.4-12c0-5.5-3.4-9.2-11.6-11.3l-40.4-9.3
		c-30.8-6.9-48.3-25-48.3-51.4c0-35.6,30.5-57.9,79.8-57.9c55.5,0,84.3,19.5,84.3,53.5h-66.1c0-9.9-6.9-14.7-18.2-14.7
		c-8.9,0-14.7,4.1-14.7,10.3c0,6.5,4.8,10.6,14.4,13l40.1,10.3c29.8,7.5,47.3,22.3,47.3,49c0,37.3-31.9,61-82.2,61
		C633.2,249.6,601,226.7,601,193.1z"/>
</g>
</svg>
